<?xml version="1.0" standalone="no"?><!DOCTYPE svg PUBLIC "-//W3C//DTD SVG 1.1//EN" "http://www.w3.org/Graphics/SVG/1.1/DTD/svg11.dtd"><svg class="icon" height="512" viewBox="0 0 1024 1024" version="1.1" xmlns="http://www.w3.org/2000/svg"><path d="M511.5 65.6c-246.9 0-447 200.1-447 447s200.1 447 447 447 447-200.1 447-447-200.1-447-447-447z m260.1 691.2c-0.7 9.2-8.9 16.6-18.1 16.6-10.3 0-18.5-8.5-18.5-18.5-10-114.2-105.3-203.3-221.8-203.3S301 640.7 291.4 754.9c0 10-8.1 18.5-18.5 18.5-9.2 0-17.4-7.4-18.1-16.6-0.4-2.6 0-4.1 0-5.9 8.9-105 80.6-191.8 177.8-223.3C392 501.4 365 455.9 365 403.8c0-81.7 66.2-147.8 148.2-147.8 81.7 0 148.2 66.2 148.2 147.8 0 52.1-27 97.6-67.6 123.8C691 559 762.7 645.9 771.6 750.9c0 1.8 0.3 3.3 0 5.9z" fill="#808080" /><path d="M513.2 292.9c-61.4 0-111.3 49.5-111.3 110.9s49.9 110.9 111.3 110.9 111.3-49.5 111.3-110.9-49.9-110.9-111.3-110.9z" fill="#808080" /></svg>